<svg xmlns="http://www.w3.org/2000/svg" viewBox="0 0 720 720" role="img" aria-label="خريطة العراق">
  <path d="M314.2,59.4L311.9,58.5L309.4,57.9L308.9,57.4L307.5,57.3L307.0,57.0L306.5,55.6L304.6,55.0L304.0,55.3L303.5,56.1L302.9,56.5L300.4,57.2L300.1,57.4L301.0,58.7L300.9,59.4L299.9,60.0L298.3,60.3L298.2,60.5L298.4,61.4L298.3,61.8L296.4,62.8L295.8,62.8L295.9,63.0L295.5,63.1L295.7,63.5L295.2,64.0L295.6,64.6L293.9,66.2L294.0,66.5L293.7,66.8L293.5,66.8L293.5,66.6L292.9,67.0L293.3,67.8L292.4,68.6L292.3,69.2L291.9,69.6L291.1,70.1L291.0,70.6L290.9,71.6L291.1,71.8L290.9,72.2L290.6,72.3L289.4,71.7L288.4,72.0L288.1,72.4L287.5,72.2L284.8,72.8L283.9,72.2L283.1,72.9L282.9,72.7L282.1,73.1L282.1,73.3L280.5,73.8L279.7,74.5L279.2,74.6L278.7,74.4L277.5,74.3L277.5,74.8L276.8,75.4L276.8,76.1L278.2,77.1L277.9,78.0L277.8,77.8L277.5,78.1L248.3,109.2L246.4,110.8L244.4,113.0L230.6,115.7L218.5,117.7L216.6,120.9L211.3,130.5L211.4,134.1L209.6,151.5L216.6,167.3L217.4,183.3L210.4,193.7L210.2,201.3L207.5,210.2L207.4,215.6L207.0,216.8L206.8,218.8L207.9,245.4L201.5,254.6L194.8,270.2L194.2,270.5L192.9,272.3L192.6,273.6L171.9,279.6L112.8,315.1L58.5,348.7L60.9,352.1L64.4,364.4L70.7,383.5L71.1,385.8L77.0,409.6L71.7,411.8L75.0,423.4L88.4,420.0L91.3,429.4L86.2,433.9L83.6,438.1L138.9,449.2L158.0,453.2L173.1,463.1L221.0,495.4L260.6,514.6L275.3,527.0L277.7,528.8L279.0,530.1L315.6,561.3L359.7,599.4L406.1,640.2L422.3,654.9L500.4,662.2L526.9,665.0L534.7,662.0L535.5,660.5L537.2,658.5L539.2,657.1L541.1,655.3L543.3,652.3L544.1,650.3L545.0,649.6L545.4,648.7L547.8,645.6L548.8,643.2L550.7,641.3L553.9,637.2L556.1,632.1L556.2,630.7L557.1,629.7L558.3,627.3L559.3,624.9L560.3,624.3L560.7,622.6L562.0,620.6L562.3,619.1L562.5,616.5L563.2,615.1L564.0,614.3L564.4,612.8L567.5,605.5L568.3,603.0L568.3,601.6L569.7,599.3L570.0,598.0L570.6,596.9L572.7,594.6L573.7,593.8L576.0,592.7L579.7,591.6L582.9,589.2L584.2,588.8L584.9,588.3L605.5,588.3L620.7,595.3L621.5,596.1L624.2,596.6L624.3,596.1L624.8,595.9L626.1,594.5L627.6,593.8L629.5,593.7L632.9,594.1L634.8,594.8L636.2,596.3L637.4,597.0L639.1,598.4L640.3,599.2L648.8,606.7L661.5,600.5L654.4,598.1L651.1,596.2L650.6,594.6L650.8,593.8L650.2,591.1L650.2,590.0L648.8,588.5L646.6,586.9L647.5,584.9L647.3,584.8L648.3,582.6L648.0,581.2L647.3,580.2L646.6,578.5L645.7,577.7L645.2,577.9L644.2,576.2L641.9,573.4L640.7,572.1L639.6,571.3L638.6,571.4L637.4,572.7L636.5,572.8L635.8,572.0L634.5,571.1L635.1,568.8L633.9,564.8L632.1,563.8L631.4,563.1L627.6,562.0L626.0,561.1L624.8,560.9L625.0,551.8L625.5,551.8L625.5,522.8L604.0,522.8L604.1,493.3L615.2,465.0L614.4,462.5L612.8,461.5L612.3,461.0L611.6,460.8L611.1,459.8L611.2,458.9L611.7,458.4L611.8,457.9L610.4,457.4L610.2,456.7L610.1,456.0L608.7,455.6L606.8,453.6L606.9,453.2L606.6,452.0L605.8,451.4L606.1,450.3L605.9,449.7L605.6,449.9L605.4,449.6L606.0,449.1L605.5,448.8L605.5,448.3L605.2,448.3L605.4,447.9L605.8,448.1L605.9,447.8L605.0,447.5L604.8,448.0L604.5,448.2L604.1,447.9L604.2,447.3L604.4,447.3L604.3,447.0L603.4,446.8L603.3,446.0L602.2,445.3L601.8,444.7L602.2,443.9L602.1,443.1L601.1,442.6L598.6,440.0L596.9,440.7L596.5,440.5L596.2,439.9L594.8,438.9L595.0,437.9L594.6,436.7L596.9,435.2L596.8,434.3L597.1,433.5L596.6,432.3L595.3,432.1L594.0,430.2L592.8,428.8L593.5,428.1L594.1,428.0L594.1,426.8L592.8,426.9L591.1,426.1L590.5,426.1L590.0,424.1L588.9,423.5L589.9,422.9L589.9,422.3L590.7,421.5L590.5,421.2L590.7,420.5L588.5,418.5L586.7,415.7L585.6,414.5L584.4,414.7L583.2,414.3L582.7,414.5L581.3,413.5L579.6,412.7L579.3,413.1L579.4,413.5L578.9,414.2L577.6,415.0L577.1,415.2L576.4,415.0L575.9,415.3L574.9,415.4L573.8,415.2L573.7,415.5L573.3,415.3L573.0,415.8L572.4,415.6L567.7,412.7L566.5,411.7L565.5,410.7L564.9,410.5L564.1,409.2L562.1,407.5L560.6,406.6L559.2,405.3L555.2,402.9L552.4,400.3L551.9,399.7L551.4,398.3L549.3,397.0L548.8,395.7L547.8,394.8L546.9,393.5L545.0,391.6L543.6,391.3L542.9,390.7L541.0,390.0L540.4,389.5L539.0,388.9L537.0,386.8L536.6,386.7L534.7,384.9L532.6,383.4L530.8,382.9L530.2,382.0L528.3,381.2L528.2,380.8L528.0,381.0L526.9,380.6L525.8,379.7L523.7,379.4L522.1,378.8L521.8,378.9L521.2,378.4L519.9,378.2L517.1,377.9L515.7,378.1L511.4,379.3L509.2,378.9L506.9,377.4L506.5,376.9L506.8,375.8L506.5,375.2L506.9,374.5L507.3,374.4L507.5,374.5L508.1,374.2L508.3,374.5L508.7,374.3L508.7,374.1L508.9,374.1L508.9,373.3L509.2,373.0L509.5,372.3L509.8,372.2L510.1,371.3L510.8,370.8L510.4,370.6L508.1,370.6L507.2,369.7L506.4,369.4L506.2,369.6L506.0,369.2L504.4,369.3L503.2,368.8L503.9,366.7L508.0,367.5L510.2,365.8L512.3,363.1L513.0,363.1L513.5,362.5L513.2,361.6L512.6,361.5L513.7,361.2L511.8,360.7L512.1,360.3L511.9,359.8L512.0,359.4L512.0,359.2L512.4,359.0L512.6,358.5L512.3,358.2L512.2,357.4L512.4,356.6L511.1,356.0L508.9,354.4L507.7,353.1L507.0,351.4L505.7,350.1L505.5,349.6L505.5,347.3L505.1,346.4L503.5,345.1L503.0,343.5L503.4,343.1L503.3,342.4L502.2,340.4L501.8,340.2L501.6,340.5L501.2,340.1L501.2,338.7L500.7,338.5L500.5,338.7L499.8,338.7L499.3,339.1L498.3,339.3L497.9,339.9L497.4,340.2L497.5,340.1L497.0,340.2L496.6,339.8L495.1,339.9L494.1,339.6L493.4,339.8L492.8,339.5L492.3,339.7L497.2,336.1L498.3,334.8L498.1,334.2L496.8,332.6L495.7,331.8L495.0,331.5L495.6,329.9L495.2,329.3L495.0,329.2L492.7,329.4L490.8,330.1L489.3,329.9L489.1,330.6L485.8,332.3L486.0,331.2L486.7,330.1L486.8,329.2L485.3,328.6L483.5,327.3L481.8,325.2L480.7,324.6L480.2,323.9L479.8,322.9L479.1,322.5L478.7,321.8L478.6,321.2L479.0,319.9L478.5,318.7L478.0,318.1L476.4,317.0L476.1,316.4L476.2,315.9L475.3,314.9L475.3,314.4L473.2,310.5L472.9,310.4L472.2,309.1L471.4,308.4L470.8,306.7L470.2,305.7L470.1,305.9L469.1,306.3L468.1,306.3L467.2,306.5L465.9,306.4L465.8,305.9L465.3,305.6L464.8,304.4L464.4,304.2L465.2,303.9L465.3,303.3L465.8,303.2L465.9,302.8L467.2,302.0L468.0,301.8L468.0,301.1L468.5,300.7L468.3,300.7L468.4,300.2L468.2,299.9L468.7,300.0L468.8,299.2L468.6,298.9L468.8,298.2L468.0,297.9L468.4,297.4L468.5,297.0L468.8,296.9L468.9,296.6L469.2,297.0L469.5,296.5L469.8,296.4L469.4,296.1L470.0,295.4L470.4,295.3L470.2,294.9L470.5,294.9L470.8,294.5L471.3,294.4L471.6,293.8L471.9,294.1L472.1,294.0L471.9,293.8L471.9,293.6L472.4,293.7L472.3,293.5L472.6,293.4L473.2,292.7L474.5,292.2L474.9,291.7L474.5,289.9L473.7,288.9L473.5,288.1L474.3,286.9L475.0,285.0L475.3,281.4L475.1,280.3L474.5,279.0L472.4,276.7L471.9,277.2L471.6,276.9L471.0,277.0L470.5,276.7L470.2,277.6L469.8,277.8L468.0,274.3L467.4,270.8L466.8,270.1L466.5,270.1L466.6,269.6L466.4,269.0L466.6,268.5L467.6,268.3L467.8,267.7L468.2,267.5L470.6,267.9L471.0,267.7L471.4,267.1L471.6,266.3L471.6,263.8L471.4,262.9L470.9,262.5L470.8,262.1L471.4,261.4L471.4,260.3L471.9,259.4L471.9,258.5L472.3,258.4L472.1,258.9L472.2,259.1L472.6,258.8L473.5,259.1L473.4,259.3L473.6,259.8L473.4,260.0L473.8,260.1L473.6,260.4L474.0,260.5L474.1,261.0L474.4,261.2L474.5,261.0L474.8,261.6L475.0,261.4L475.3,261.7L475.5,261.5L475.6,261.8L475.9,261.9L475.8,262.2L476.6,262.3L477.6,262.0L477.8,262.2L478.1,262.1L478.3,261.6L478.7,261.7L478.6,262.0L479.1,262.1L479.3,261.8L479.9,261.9L480.1,262.1L481.2,261.6L481.3,261.8L481.9,261.8L482.3,262.3L482.9,262.5L482.9,262.8L483.4,262.9L483.4,263.1L483.6,263.0L483.8,263.2L484.9,263.2L484.9,262.2L484.4,261.5L484.8,260.7L484.7,259.5L484.2,259.1L483.7,258.0L484.1,257.2L483.8,256.0L483.5,255.6L482.9,253.4L482.1,253.4L482.4,251.6L481.9,251.3L481.7,250.7L480.7,250.5L479.4,249.5L480.1,249.0L480.5,248.3L481.2,246.5L482.3,245.9L481.9,245.2L482.6,244.5L481.8,243.7L481.6,242.8L482.2,242.1L482.9,241.8L483.7,241.1L484.5,240.9L484.6,241.5L485.0,241.5L485.4,241.7L486.9,241.2L488.2,239.6L488.2,237.8L487.6,236.1L488.0,235.8L489.7,235.8L490.6,236.6L491.6,236.9L492.4,236.9L492.5,236.2L492.7,236.1L492.6,234.6L492.9,234.4L492.9,233.9L493.3,233.8L493.5,233.3L494.3,232.9L494.2,232.6L494.4,232.1L494.0,231.3L494.1,231.0L493.8,230.4L493.9,230.1L493.7,229.3L493.0,228.6L493.3,228.1L493.1,226.8L494.5,225.8L496.4,225.9L496.3,225.4L495.8,225.2L496.0,224.2L495.9,222.2L496.7,223.3L497.4,222.6L498.7,223.5L498.8,223.8L499.5,223.9L500.4,224.6L500.7,224.6L501.0,224.0L501.6,224.0L502.6,225.3L503.6,225.5L503.9,225.3L504.3,226.4L504.8,226.1L504.8,225.8L505.6,225.1L505.6,224.8L505.1,225.1L504.9,224.8L505.2,224.1L505.0,223.6L505.2,223.1L506.5,222.8L506.8,223.4L507.9,223.7L508.6,223.2L509.5,222.9L510.4,222.8L511.0,222.1L512.4,220.9L511.2,220.5L510.2,219.8L510.6,219.0L510.5,218.2L510.2,217.7L510.3,217.2L510.9,216.6L512.1,215.7L512.7,215.7L512.9,215.2L512.8,214.8L513.0,214.4L512.6,214.2L512.6,213.6L511.6,212.5L510.6,212.8L509.7,212.5L508.8,212.5L508.3,212.2L508.5,211.9L508.0,212.1L507.4,211.6L508.2,211.2L508.4,210.5L509.8,209.2L509.9,208.6L510.5,208.4L510.0,207.7L510.0,207.3L509.7,206.3L508.6,205.2L508.5,204.7L506.8,203.8L506.4,203.5L506.5,202.9L505.2,202.5L504.9,202.1L504.7,201.4L503.9,200.7L503.1,199.4L502.2,197.2L501.5,196.5L499.8,192.9L500.3,191.1L500.9,191.3L501.8,191.1L501.3,190.4L500.5,190.0L500.6,189.0L499.6,188.0L499.0,186.6L499.1,186.3L500.1,186.5L500.5,186.9L500.9,186.9L501.3,187.2L502.3,187.1L502.5,186.9L502.1,186.1L501.6,185.7L501.5,185.1L501.8,184.4L501.5,183.2L501.3,182.8L500.3,182.6L500.4,182.2L501.4,181.6L501.6,180.5L501.2,179.7L501.3,179.4L501.6,179.0L502.3,178.9L502.3,178.5L502.7,178.4L502.6,177.9L502.9,177.5L503.4,177.4L503.7,177.9L504.5,177.8L505.0,178.5L506.6,178.3L506.8,178.7L507.7,178.7L508.2,178.5L508.5,178.2L509.4,178.1L510.5,178.7L510.9,178.7L511.4,177.9L511.4,177.4L511.7,176.9L512.4,176.7L512.7,176.3L513.9,176.1L514.0,176.4L515.1,176.7L516.8,175.8L517.7,175.8L518.4,175.3L518.0,175.1L518.1,174.6L519.3,174.0L519.5,173.3L521.1,173.2L521.5,172.4L521.4,172.0L522.0,171.4L521.9,170.7L522.0,170.3L521.6,169.1L520.0,169.1L518.7,167.9L517.8,169.2L515.9,169.8L515.1,169.5L513.7,170.9L512.7,170.4L512.6,170.0L512.0,169.6L511.4,170.4L511.0,170.5L510.3,170.0L509.3,168.9L509.0,167.9L509.3,167.2L508.9,167.3L507.0,166.8L506.6,166.3L506.6,165.6L506.0,165.3L505.9,165.8L505.7,166.1L504.1,166.4L503.5,167.1L502.2,167.9L501.6,167.6L500.9,167.9L499.9,167.6L499.3,167.9L498.6,167.4L498.0,168.2L498.0,168.4L496.8,168.8L496.1,168.2L494.4,167.8L493.5,168.2L493.5,169.1L493.4,169.6L493.1,169.7L492.2,169.2L490.5,169.8L488.5,168.6L488.4,169.5L488.0,169.7L486.9,169.6L486.3,170.6L485.8,169.9L485.8,169.6L485.3,168.7L484.8,168.3L484.7,167.5L484.0,166.9L483.8,166.1L483.4,165.9L483.3,164.8L482.6,164.2L482.1,164.2L482.2,163.5L481.9,163.2L481.1,163.2L480.6,162.3L480.3,161.3L478.7,160.0L477.8,159.7L477.5,158.9L477.3,159.1L476.8,159.0L476.7,158.8L476.3,158.9L475.9,158.4L475.9,157.9L475.7,157.5L475.2,157.5L475.4,157.8L475.2,157.9L474.6,157.7L474.6,157.2L473.1,155.8L471.4,156.2L470.2,155.6L468.8,155.7L467.2,156.6L467.1,156.2L466.4,155.9L466.0,156.1L465.9,156.5L465.6,156.9L464.5,157.3L464.5,157.5L464.3,157.7L464.4,158.0L463.6,158.2L462.8,157.7L462.4,158.0L462.3,157.8L462.5,157.4L462.3,157.1L461.7,157.1L461.6,157.3L461.9,157.7L460.9,157.5L460.7,157.2L460.9,156.8L460.4,156.1L460.4,155.2L461.0,154.3L461.0,153.5L462.2,152.1L462.8,149.8L462.1,148.2L460.9,147.9L460.4,146.9L460.3,146.4L459.5,145.7L459.4,145.0L459.7,144.5L459.3,143.6L459.1,143.5L459.2,142.7L458.8,142.4L460.1,141.0L459.6,140.1L459.2,140.0L458.7,139.4L458.8,138.4L456.7,137.9L455.7,137.3L456.6,136.4L457.8,136.1L458.0,135.7L457.2,134.8L456.8,134.7L456.3,134.0L455.9,134.1L455.4,133.8L455.8,132.1L456.7,131.1L456.6,130.7L456.2,130.6L456.2,130.0L456.0,129.3L456.2,129.0L455.9,128.4L456.3,128.1L456.0,127.4L456.0,127.0L455.2,126.4L454.8,126.3L454.8,125.4L454.2,125.2L454.2,124.6L453.8,124.1L450.4,125.2L448.9,125.3L448.6,126.1L446.8,126.0L446.5,126.1L445.7,125.3L444.4,124.6L444.1,124.2L444.0,122.5L443.1,121.7L443.0,121.0L442.7,120.4L442.8,118.7L441.7,118.4L441.4,118.0L440.4,117.8L439.9,117.3L439.5,116.4L439.8,115.8L439.7,115.5L440.4,114.9L441.1,114.9L441.7,114.6L441.7,113.3L441.1,112.7L441.0,111.5L442.6,110.8L443.2,110.8L443.6,109.6L443.5,108.7L443.7,108.0L443.3,105.6L442.2,103.2L441.3,102.3L441.3,101.5L440.0,101.1L437.6,100.8L436.9,99.3L435.8,98.3L435.4,98.3L435.1,98.7L434.4,99.0L433.0,98.8L432.6,98.5L431.1,98.7L430.7,99.4L430.2,99.1L429.8,98.6L429.4,97.4L429.6,96.0L430.4,95.0L431.2,94.9L430.8,94.2L431.0,93.9L431.7,93.8L433.3,93.0L433.3,91.7L433.6,91.3L434.0,90.0L434.0,88.6L433.5,88.1L433.0,86.9L432.3,86.2L433.0,82.9L433.5,82.1L433.4,81.7L433.3,80.8L432.9,80.4L431.3,80.2L430.7,79.7L430.6,79.3L430.4,79.1L429.7,78.9L428.2,79.6L427.5,79.2L427.3,78.9L427.3,78.3L427.0,77.6L425.8,76.9L425.7,76.4L426.1,75.8L425.0,75.1L424.8,74.8L424.1,74.3L423.9,73.8L424.2,73.3L424.9,73.0L425.1,72.4L426.1,71.9L426.4,70.9L425.3,70.2L424.3,70.5L422.1,69.7L419.6,69.7L418.0,68.9L417.1,68.8L415.0,70.3L414.0,70.7L412.0,73.5L411.0,73.6L410.4,74.0L410.0,74.4L409.9,75.2L409.4,75.6L406.0,77.4L402.9,78.4L400.8,78.4L399.5,78.9L399.4,79.3L400.4,80.3L400.4,80.6L397.9,83.8L397.6,84.9L396.6,84.3L395.3,84.3L394.5,83.8L394.0,82.3L393.0,80.5L393.2,78.8L391.2,77.1L390.6,76.1L390.4,75.3L390.8,74.1L392.3,72.3L392.9,71.0L394.5,71.1L395.3,70.6L395.8,69.7L395.8,69.0L395.1,67.6L395.3,65.9L395.1,65.2L394.4,64.1L392.6,62.0L389.9,61.1L389.0,60.5L388.3,60.5L386.7,59.4L385.2,59.7L383.8,59.8L381.6,59.1L380.9,59.3L379.7,58.9L378.4,60.7L376.7,61.3L376.2,61.7L375.0,63.9L375.0,64.7L374.2,66.1L373.0,66.5L370.4,66.3L369.7,66.7L369.4,67.3L369.0,68.7L367.8,67.9L367.0,66.4L365.8,65.9L363.6,65.6L362.8,65.9L361.5,65.6L360.7,65.9L360.2,65.5L358.6,66.4L357.3,66.4L356.6,66.7L355.1,65.9L354.2,65.9L353.4,65.5L352.7,64.1L352.0,63.8L349.2,64.9L347.4,64.5L345.6,62.8L343.8,62.3L341.5,61.0L340.4,59.3L339.4,58.6L338.7,58.5L337.9,58.8L337.0,59.6L336.8,60.4L336.6,60.5L335.8,59.8L334.4,59.5L333.8,58.8L332.2,57.5L331.0,57.5L329.4,56.7L327.8,56.5L327.3,55.5L326.9,55.3L325.3,55.6L324.6,55.5L323.4,55.9L319.0,56.7L317.9,58.3L315.9,59.0L315.3,59.4L314.2,59.4ZM498.0,168.8L497.5,168.7L498.1,168.5L498.0,168.8Z" fill="#123f38" stroke="#fff0cb" stroke-width="15" stroke-linejoin="round" fill-rule="evenodd"/>
  <g fill="none" stroke="#4f94a1" stroke-width="11" stroke-linecap="round" opacity=".9">
      <path d="M314.6,122.5L314.8,121.6L311.4,120.5L308.6,120.7L306.5,119.8L302.6,120.4L301.5,120.0L300.4,118.9L301.1,115.5M301.1,115.5L301.5,115.3M306.1,110.0L306.0,110.6L305.1,111.0L305.6,112.2L303.4,112.9L302.8,114.4L301.1,115.1L301.1,115.5"/>
      <path d="M314.6,122.5L314.2,123.8L315.7,126.7L318.5,126.9L319.1,127.4L323.7,127.2L323.3,128.3L323.4,129.2L327.2,132.7L327.1,133.8L327.5,134.7L327.1,135.4L327.2,136.2L328.7,138.1L330.3,141.9L332.9,142.5L332.7,145.7L332.9,146.0L334.5,145.3L335.2,145.5L335.5,146.0L334.7,146.7L334.3,147.6L335.2,150.3L334.8,151.1L336.4,153.3L336.5,153.9L337.2,154.1L337.2,156.2L338.2,158.0L337.1,161.2L337.6,162.7L339.0,163.4L339.2,164.2L339.1,164.9L338.2,165.7L336.1,166.7L336.5,168.3L336.5,170.6L334.4,172.1L335.0,174.6L334.8,175.8L336.5,178.0L335.7,179.0L333.4,179.7L331.8,182.4L331.7,183.2L332.9,184.4L332.9,185.2L332.8,186.2L332.2,186.5L331.0,189.3L331.1,190.0L332.4,191.4L333.1,193.7L333.3,196.5L332.8,199.0L336.8,203.6L339.4,204.5L339.4,205.0L338.5,205.3L338.4,205.9L338.7,207.3L338.4,209.0L342.9,209.9L343.0,210.9L342.9,211.8L340.2,213.1L340.3,213.9L343.2,218.3L345.0,219.0L346.8,221.7L348.0,221.9L349.7,223.1L349.6,224.6L352.0,227.1L352.2,228.3L351.5,230.0L350.3,230.5L349.8,231.8L348.0,233.4L348.0,234.2L348.6,235.7L349.9,236.4L349.6,238.5L351.0,240.8L351.9,245.0L352.5,245.6L354.1,245.9L355.6,247.0L355.5,248.3L357.5,249.3L358.0,251.9L357.6,253.3L358.8,255.7L358.7,257.7L360.4,259.8L359.6,261.1L359.8,262.0L360.3,263.0L363.3,264.8L364.4,267.7L364.5,269.6L363.9,270.3L363.8,271.5L364.3,272.6L363.7,274.6L364.1,275.9L364.8,276.7L365.0,277.9L366.1,278.3L366.6,281.6L368.3,284.1L367.8,285.5L368.0,286.3L368.8,287.2L371.0,293.3L373.4,295.1L374.6,296.7L376.5,296.8L377.9,297.5L379.2,296.9L380.2,298.2L381.4,298.5L382.2,298.4L382.4,297.6L384.7,298.2L386.6,297.7L387.5,298.5L388.8,297.7L388.8,298.8L390.0,299.9L390.1,300.7L391.2,300.8L391.5,302.8L391.9,303.2L392.6,302.4L392.5,300.4L394.1,299.6L395.0,300.1L394.9,301.6L395.4,302.7L399.4,301.8L400.7,302.1L401.9,303.1L402.2,305.5L403.4,306.8L404.9,307.3L405.9,308.4L406.1,310.2L404.3,311.6L404.6,313.1L402.4,316.0L401.4,320.0L402.0,321.9L404.1,323.1L404.9,324.1L404.5,325.1L402.5,326.3L403.2,329.1L403.2,330.4L402.3,331.3L399.5,330.0L397.7,333.5L398.0,335.0L399.4,336.7L397.4,336.1L396.6,336.8L397.1,339.1L396.5,341.8L399.1,344.2L399.1,345.7L398.3,347.6L399.7,347.5L400.1,347.9L399.5,349.6L400.8,349.7L400.8,350.8L403.2,352.7L403.6,353.8L403.0,354.5L401.4,354.9L400.5,356.0L400.8,356.8L401.5,356.8L403.9,355.1L405.6,355.2L405.7,358.7L408.7,359.7L408.8,360.2L407.6,361.8L407.8,363.7L412.1,365.2L412.8,365.8L411.7,367.6L413.1,369.6L413.2,373.7L414.1,373.7L414.5,373.0L414.7,370.5L415.2,369.9L415.7,370.1L416.7,371.5L416.3,373.2L418.4,376.1L422.0,374.1L423.1,374.0L423.4,374.5L423.4,376.3L421.2,378.1L422.0,379.0L424.5,379.1L424.8,377.0L425.7,376.3L427.1,379.1L426.6,381.6L426.9,382.0L427.5,381.7L427.7,379.4L429.0,377.9L429.6,377.9L429.2,381.0L430.0,381.4L432.8,381.2L434.9,382.8L436.5,383.4L435.5,384.4L435.9,385.2L439.1,386.7L439.7,386.6L441.4,383.6L442.8,383.2L443.7,383.6L444.3,384.3L443.7,385.5L441.2,386.4L441.1,387.0L441.2,387.8L442.0,388.6L444.5,390.3L444.8,392.5L446.8,392.8L448.3,391.7L451.2,393.8L457.5,395.1L457.6,395.6L454.5,399.0L455.0,399.6L456.5,400.2L458.7,400.4L460.3,399.6L459.5,402.3L460.2,403.3L462.4,401.2L462.8,401.6L463.0,403.5L464.6,404.9L465.0,408.6L469.9,406.1L472.4,406.8L472.8,408.2L470.8,409.8L471.5,411.3L472.0,411.2L475.4,408.0L476.2,407.8L476.3,408.3L475.1,410.3L478.1,411.3L477.8,409.4L478.2,408.5L479.7,408.5L483.7,410.3L483.8,412.3L484.2,413.1L485.3,412.7L486.1,411.4L487.3,410.8L490.1,413.6L490.9,413.7L491.3,413.1L490.2,411.7L490.3,411.3L493.3,410.3L495.0,408.9L495.3,409.2L495.3,410.6L495.9,410.7L496.1,408.9L496.9,408.4L496.9,407.1L498.3,405.2L500.3,405.1L502.5,403.9L503.6,404.5L504.5,402.3L506.2,403.2L508.5,401.4L509.4,401.4L512.1,403.4L513.5,405.5L513.9,406.9L515.2,407.0L516.3,409.2L517.0,409.0L517.5,407.6L520.7,409.3L521.9,411.0L525.2,411.1L526.9,411.6L527.4,410.7L530.2,410.2L530.8,411.1L532.6,411.1L535.1,412.5L535.9,411.6L536.9,412.9L538.6,412.8L538.6,413.7L541.6,413.4L542.3,413.8L543.0,415.5L544.4,415.5L544.9,416.2L543.9,417.5L545.2,418.3L545.4,420.7L547.4,423.5L546.6,425.5L546.0,425.5L545.0,423.9L544.7,424.4L544.8,425.6L543.8,426.2L544.5,428.9L544.9,429.0L544.7,430.1L545.4,431.4L544.5,431.7L543.1,433.3L542.9,435.1L544.1,435.0L545.2,437.1L544.8,437.7L544.9,439.0L545.5,441.0L546.6,441.2L547.1,442.1L549.3,443.5L549.7,444.8L550.7,444.2L552.3,444.9L554.1,443.9L554.7,445.2L554.3,445.8L554.8,446.7L554.6,447.2L555.4,448.0L555.2,448.5L555.9,450.3L555.4,450.8L556.8,454.9L558.7,456.7L559.0,457.4L558.5,458.2L558.9,458.7L561.6,459.2L562.6,460.0L564.5,458.4L566.3,458.3L567.6,457.4L568.8,458.3L568.7,459.7L571.2,460.2L571.2,464.3L570.3,466.2L571.3,467.5L571.1,468.4L571.5,470.0L570.9,470.6L571.9,471.2L571.7,471.7L572.3,472.4L572.6,477.9L579.3,483.3L579.6,484.9L581.8,485.1L582.1,485.9L583.2,486.1L585.2,487.4L585.1,488.5L586.5,490.1L585.0,490.8L585.6,492.2L585.4,492.7L586.5,493.0L586.3,493.8L587.4,494.5L588.8,494.5L588.9,495.9L589.8,497.2L589.0,498.9L588.2,498.2L587.9,498.5L587.2,500.1L588.4,501.4L588.4,503.3L588.9,504.4L589.5,504.6L588.7,506.7L589.6,508.8L588.7,509.3L588.5,510.8L588.8,511.8L589.6,512.4L589.0,514.1L589.3,514.8L588.2,516.0L589.4,517.2L589.4,518.4L588.7,518.4L588.6,520.3L589.1,522.3L591.3,523.3L591.3,524.4"/>
      <path d="M589.5,522.6L587.9,522.6L585.7,524.2L582.2,524.7L581.7,525.4L581.5,527.1L580.8,528.0L580.0,527.7L579.2,525.8L574.3,526.5L572.4,526.1L568.0,526.6L566.4,525.7L561.8,525.4L560.8,527.0L558.8,526.7L558.7,526.2L557.6,525.9L554.0,527.5L551.4,525.9L548.2,526.0L546.5,526.8L545.3,526.8L543.0,525.1L541.1,525.7L540.8,525.0L538.6,525.2L536.2,524.1L534.3,526.8L529.8,529.4L527.4,527.5L524.9,527.4L524.5,526.5L521.7,525.0L521.0,524.1L520.0,524.1L519.2,520.7L515.0,519.2L513.3,520.1L510.6,519.8L509.3,518.5L508.2,518.4L506.3,515.7L505.5,515.6L505.5,514.6L504.0,513.8L502.3,514.7L501.8,514.4L500.5,514.7L499.3,514.2L497.4,515.0L497.0,514.5L494.6,514.0L494.0,514.3L493.0,513.5L492.6,512.1L489.9,510.8L488.7,510.6L488.8,511.7L487.9,511.0L487.2,511.4L486.8,510.3L484.4,509.8L481.9,511.0L477.5,508.5L476.6,507.3L475.4,507.8L475.4,508.5L474.7,508.7L474.7,509.3L473.0,509.1L472.6,507.8L472.8,507.0L473.2,507.2L473.6,506.4L471.8,504.0L472.7,502.6L471.7,502.0L469.2,501.3L468.9,500.9L466.8,501.5L466.2,502.3L466.0,500.8L465.3,500.3L462.7,500.8L459.8,499.6L458.8,499.7L458.3,499.1L457.4,499.8L456.7,499.4L456.7,498.7L454.5,498.8L453.7,497.4L453.8,496.8L452.1,495.1L451.8,493.8L450.3,493.7L448.0,491.6L446.2,491.6L444.6,492.3L443.9,492.1L442.7,493.0L441.7,493.0L441.0,492.8L440.6,491.5L438.4,490.5L437.9,492.0L436.4,492.1L434.0,489.4L433.1,489.4L433.0,488.6L431.2,487.4L428.1,487.4L427.4,487.8L427.0,489.3L426.2,489.5L424.6,486.9L422.6,486.3L420.5,485.0L419.6,483.8L419.5,482.8"/>
      <path d="M419.5,482.8L417.4,482.1L417.1,481.2L417.8,480.2L416.8,480.1L416.1,479.2L414.2,478.4L412.7,478.5L411.7,477.1L410.7,477.1L410.0,476.6L409.4,475.6L409.2,474.0L409.5,473.1L407.9,471.1L409.8,467.4L408.4,463.7L409.1,461.3L408.2,455.2L406.9,453.5L406.1,450.8L405.1,449.1L403.3,446.6L402.1,445.8L401.6,443.2L400.8,442.9L400.3,442.0L399.9,440.9L400.1,438.2L399.3,435.9L400.3,434.1L400.1,431.4L399.6,430.8L399.7,430.2L399.0,428.8L397.3,426.6L397.2,424.6L396.4,422.9L396.1,419.1L397.1,417.4L397.0,416.5L391.3,407.6L392.7,403.7L393.3,400.1L394.6,398.2L394.7,393.2L395.8,392.0L395.8,391.4L394.9,390.4L394.6,387.6L393.6,386.2L390.6,384.6L390.3,382.7L389.7,382.3L389.0,380.1L389.5,377.8L388.2,376.8L388.0,376.1L388.8,374.2L386.6,374.7L386.1,372.9L384.7,371.2L385.2,370.3L384.6,369.6L382.6,369.2L382.5,367.8L380.2,366.4L379.9,365.3L378.4,363.9L377.2,363.9L377.2,364.6L376.5,365.1L374.3,363.9L373.4,361.1L371.0,360.5L370.3,360.7L370.4,361.2L371.9,362.0L372.0,362.8L370.1,363.1L369.2,362.3L368.6,361.2L368.6,357.6L367.9,356.7L367.4,356.7L367.4,357.3L366.5,357.3L365.4,353.7L363.8,353.5L363.4,352.3L363.4,350.1L362.6,350.3L361.9,351.4L356.9,346.9L356.3,348.2L355.2,348.9L354.5,348.7L354.6,347.4L351.6,347.3L351.3,346.8L351.6,345.5L349.6,347.0L346.9,346.9L347.8,345.5L347.1,344.7L345.9,344.9L345.5,345.7L344.5,343.5L344.0,343.8L342.0,342.4L341.5,342.5L341.3,343.7L340.3,343.5L338.5,341.4L338.1,341.4L336.3,343.8L333.4,343.7L333.7,345.1L332.7,344.7L332.3,342.4L331.7,341.6L325.7,337.9L322.4,337.5L321.3,339.0L321.1,340.4L320.2,340.4L319.6,339.7L319.1,337.9L318.5,337.3L314.2,337.7L312.4,337.5L312.0,336.0L309.9,333.7L308.6,330.6L307.8,329.6L304.1,327.4L303.3,325.0L299.6,324.0L299.8,322.0L301.4,321.1L299.0,317.0L299.2,316.2L300.6,316.1L302.6,313.9L301.3,312.9L300.9,312.0L294.3,309.5L292.8,310.8L292.4,313.5L291.3,313.9L287.5,312.9L287.4,312.3L288.3,311.2L287.6,310.6L287.5,309.7L289.7,309.8L289.8,306.6L290.4,305.8L290.2,304.6L288.1,303.3L286.6,300.4L285.2,300.3L282.7,301.8L281.4,302.1L280.7,301.6L280.7,299.2L278.5,297.0L278.0,295.9L279.2,294.2L279.1,289.6L277.0,287.5"/>
      <path d="M353.8,340.8L356.3,341.5L391.8,341.4L393.6,340.5L396.1,341.6L396.5,340.7"/>
      <path d="M409.8,467.4L407.9,471.1L409.5,473.1L409.2,474.0L409.4,475.6L410.0,476.6L410.7,477.1L411.7,477.1L412.7,478.5L414.2,478.3L413.8,477.6L415.1,475.4L414.6,474.1L415.3,472.1"/>
      <path d="M415.4,472.1L416.9,469.9L416.4,469.4L416.1,468.1L416.3,466.7L414.8,463.6L415.7,461.6L416.4,461.3L417.0,459.5L416.0,459.3L414.9,457.4L414.5,455.5L414.8,453.6L414.5,452.2L412.2,449.6L411.5,449.5L411.4,446.7L410.7,445.8L409.7,445.5L408.3,444.1L406.3,444.4L404.6,441.9L401.7,440.1L400.8,438.0L400.9,436.8L400.3,434.1"/>
      <path d="M332.5,344.0L334.5,345.6L338.3,350.7L339.4,350.9L339.9,352.4"/>
      <path d="M277.1,73.3L277.0,76.4L278.2,77.2L278.1,79.0L281.4,84.1L282.6,84.8L282.8,85.7L284.0,85.7L284.7,86.9L286.0,86.4L285.9,85.1"/>
      <path d="M497.3,422.8L496.3,421.3L496.5,420.2L495.3,420.4L493.4,418.0L492.1,418.5L491.3,418.0L489.6,418.1L488.7,416.0L489.0,412.4"/>
      <path d="M503.1,439.8L503.1,437.6M503.1,437.5L503.0,436.7L501.1,435.8L501.1,434.7L500.6,434.6M500.6,434.6L500.6,434.6M500.6,434.6L500.6,434.6M500.6,434.6L500.0,433.9L498.6,433.4L497.8,432.3L498.0,431.4L498.6,431.0L498.4,430.3L496.5,429.8L496.2,428.6L497.0,428.0L495.5,425.8L496.1,424.6L496.8,424.5L497.5,423.2L497.3,422.8M497.3,422.8L496.3,421.3L496.5,420.2L495.3,420.4L493.4,418.0L492.1,418.5L491.3,418.0L489.6,418.1L488.7,416.0L489.0,412.4"/>
      <path d="M497.3,422.8L496.3,421.3L496.5,420.2L495.3,420.4L493.4,418.0L492.1,418.5L491.3,418.0L489.6,418.1L488.7,416.0L489.0,412.4"/>
      <path d="M497.3,422.8L496.3,421.3L496.5,420.2L495.3,420.4L493.4,418.0L492.1,418.5L491.3,418.0L489.6,418.1L488.7,416.0L489.0,412.4"/>
      <path d="M503.1,439.8L503.1,437.6M503.1,437.5L503.0,436.7L501.1,435.8L501.1,434.7L500.6,434.6M500.6,434.6L500.6,434.6M500.6,434.6L500.6,434.6M500.6,434.6L500.0,433.9L498.6,433.4L497.8,432.3L498.0,431.4L498.6,431.0L498.4,430.3L496.5,429.8L496.2,428.6L497.0,428.0L495.5,425.8L496.1,424.6L496.8,424.5L497.5,423.2L497.3,422.8M497.3,422.8L496.3,421.3L496.5,420.2L495.3,420.4L493.4,418.0L492.1,418.5L491.3,418.0L489.6,418.1L488.7,416.0L489.0,412.4"/>
      <path d="M257.8,275.2L256.9,275.1L256.2,274.1L255.5,271.2L254.1,268.5L253.2,267.9L251.9,267.8L250.1,269.3L249.7,268.2L248.8,267.6L245.2,268.3L245.0,267.3L243.4,265.4L241.5,263.8L241.2,264.4L241.8,266.2L240.9,267.2L238.1,268.7L237.6,269.7L236.6,269.7L235.2,268.5L230.5,267.6L229.7,268.3L229.7,269.0L230.6,270.4L228.0,270.6L226.7,271.3L225.9,270.6L224.7,270.9L223.4,271.8L221.4,271.2L221.0,270.2L220.9,268.4L220.4,267.8L219.4,268.4L218.9,269.7L220.8,271.2L219.9,271.4L217.9,269.9L217.2,271.0L216.2,270.9L215.2,269.6L214.2,270.1L212.5,269.3L212.2,269.8L212.5,270.9L211.5,271.7L210.3,271.6L209.0,269.3L208.0,269.4L207.2,270.4L205.1,270.9L204.8,271.6L207.6,272.9L207.3,274.0L206.0,274.6L202.5,274.8L201.4,276.0L200.2,274.9L198.5,274.8L198.1,273.8L196.9,273.5L194.1,271.6L193.3,271.6L192.8,270.7"/>
      <path d="M591.3,524.4L591.1,526.2L591.8,527.8L598.5,538.1L600.5,539.8L603.8,541.2L606.2,541.4L607.6,542.3L608.4,545.4L608.9,551.7L609.7,554.0L612.8,556.4L614.9,559.5L617.3,561.3L629.3,563.3L631.9,564.1L633.6,565.4L634.3,566.5L634.4,568.4L635.5,572.0L636.5,573.1L637.4,573.0L639.1,571.5L640.5,572.0L648.0,581.5L648.3,582.8L646.5,586.3L646.6,587.5L650.0,590.6L650.5,595.6L654.5,598.8L661.1,601.2"/>
  </g>
</svg>